<svg width="54" height="54" viewBox="0 0 54 54" fill="none" xmlns="http://www.w3.org/2000/svg">
<path d="M35.3333 10.3333V43.6667C35.3333 45.3148 35.8221 46.926 36.7377 48.2964C37.6534 49.6668 38.9549 50.7349 40.4776 51.3657C42.0003 51.9964 43.6759 52.1614 45.2924 51.8399C46.9089 51.5183 48.3938 50.7247 49.5592 49.5592C50.7247 48.3938 51.5183 46.9089 51.8399 45.2924C52.1614 43.6759 51.9964 42.0003 51.3657 40.4776C50.7349 38.9549 49.6668 37.6534 48.2964 36.7377C46.926 35.8221 45.3148 35.3333 43.6667 35.3333H10.3333C8.68516 35.3333 7.07399 35.8221 5.70358 36.7377C4.33317 37.6534 3.26507 38.9549 2.63434 40.4776C2.00361 42.0003 1.83858 43.6759 2.16013 45.2924C2.48167 46.9089 3.27534 48.3938 4.44078 49.5592C5.60622 50.7247 7.09108 51.5183 8.70758 51.8399C10.3241 52.1614 11.9996 51.9964 13.5224 51.3657C15.0451 50.7349 16.3466 49.6668 17.2622 48.2964C18.1779 46.926 18.6667 45.3148 18.6667 43.6667V10.3333C18.6667 8.68516 18.1779 7.07399 17.2622 5.70358C16.3466 4.33317 15.0451 3.26507 13.5224 2.63434C11.9996 2.00361 10.3241 1.83858 8.70758 2.16013C7.09108 2.48167 5.60622 3.27534 4.44078 4.44078C3.27534 5.60622 2.48167 7.09108 2.16013 8.70758C1.83858 10.3241 2.00361 11.9996 2.63434 13.5224C3.26507 15.0451 4.33317 16.3466 5.70358 17.2622C7.07399 18.1779 8.68516 18.6667 10.3333 18.6667H43.6667C45.3148 18.6667 46.926 18.1779 48.2964 17.2622C49.6668 16.3466 50.7349 15.0451 51.3657 13.5224C51.9964 11.9996 52.1614 10.3241 51.8399 8.70758C51.5183 7.09108 50.7247 5.60622 49.5592 4.44078C48.3938 3.27534 46.9089 2.48167 45.2924 2.16013C43.6759 1.83858 42.0003 2.00361 40.4776 2.63434C38.9549 3.26507 37.6534 4.33317 36.7377 5.70358C35.8221 7.07399 35.3333 8.68516 35.3333 10.3333Z" stroke="#18181B" stroke-width="3"/>
</svg>
