<svg width="64" height="64" viewBox="0 0 64 64" fill="none" xmlns="http://www.w3.org/2000/svg">
<path d="M40.3333 15.3333V48.6667C40.3333 50.3148 40.8221 51.926 41.7377 53.2964C42.6534 54.6668 43.9549 55.7349 45.4776 56.3657C47.0003 56.9964 48.6759 57.1614 50.2924 56.8399C51.9089 56.5183 53.3938 55.7247 54.5592 54.5592C55.7247 53.3938 56.5183 51.9089 56.8399 50.2924C57.1614 48.6759 56.9964 47.0003 56.3657 45.4776C55.7349 43.9549 54.6668 42.6534 53.2964 41.7377C51.926 40.8221 50.3148 40.3333 48.6667 40.3333H15.3333C13.6852 40.3333 12.074 40.8221 10.7036 41.7377C9.33317 42.6534 8.26507 43.9549 7.63434 45.4776C7.00361 47.0003 6.83858 48.6759 7.16013 50.2924C7.48167 51.9089 8.27534 53.3938 9.44078 54.5592C10.6062 55.7247 12.0911 56.5183 13.7076 56.8399C15.3241 57.1614 16.9996 56.9964 18.5224 56.3657C20.0451 55.7349 21.3466 54.6668 22.2622 53.2964C23.1779 51.926 23.6667 50.3148 23.6667 48.6667V15.3333C23.6667 13.6852 23.1779 12.074 22.2622 10.7036C21.3466 9.33317 20.0451 8.26507 18.5224 7.63434C16.9996 7.00361 15.3241 6.83858 13.7076 7.16013C12.0911 7.48167 10.6062 8.27534 9.44078 9.44078C8.27534 10.6062 7.48167 12.0911 7.16013 13.7076C6.83858 15.3241 7.00361 16.9996 7.63434 18.5224C8.26507 20.0451 9.33317 21.3466 10.7036 22.2622C12.074 23.1779 13.6852 23.6667 15.3333 23.6667H48.6667C50.3148 23.6667 51.926 23.1779 53.2964 22.2622C54.6668 21.3466 55.7349 20.0451 56.3657 18.5224C56.9964 16.9996 57.1614 15.3241 56.8399 13.7076C56.5183 12.0911 55.7247 10.6062 54.5592 9.44078C53.3938 8.27534 51.9089 7.48167 50.2924 7.16013C48.6759 6.83858 47.0003 7.00361 45.4776 7.63434C43.9549 8.26507 42.6534 9.33317 41.7377 10.7036C40.8221 12.074 40.3333 13.6852 40.3333 15.3333Z" stroke="white" stroke-width="3"/>
</svg>
